<?xml version="1.0" encoding="UTF-8"?>
<svg width="752pt" height="752pt" version="1.1" viewBox="0 0 752 752" xmlns="http://www.w3.org/2000/svg">
 <g>
  <path d="m426.2 469.39-113.23-113.23-8.2891 113.23z"/>
  <path d="m376.33 277.73c-7.0312 0.011719-13.887 2.207-19.617 6.2773-5.7344 4.0703-10.066 9.8203-12.395 16.453l5.7305 5.7305c1.8281-8.7461 7.8867-16.012 16.168-19.379 8.2773-3.3672 17.688-2.3945 25.105 2.5938 7.4141 4.9922 11.859 13.344 11.859 22.277v14.207h-33.152l72.98 72.93-5.4453-72.785h-27.277v-14.207c0.023438-9.0273-3.5391-17.691-9.9102-24.09-6.3672-6.3945-15.02-9.9961-24.047-10.008z"/>
  <path d="m376.33 186.24c-42.145-0.078125-83.094 14.016-116.26 40.016-4.7344 3.5039-8.9023 7.2461-13.07 11.176l-8.3359 8.5742c-4.1562 4.3984-8.0781 9.0156-11.746 13.828-28.137 36.379-42.043 81.766-39.125 127.66 2.9219 45.895 22.473 89.156 54.992 121.68 32.52 32.52 75.777 52.07 121.68 54.988 45.895 2.9219 91.281-10.988 127.66-39.121 12.559-9.5742 23.844-20.715 33.574-33.152 29.34-37.445 43.484-84.578 39.609-131.99-3.8711-47.414-25.477-91.621-60.504-123.81-35.027-32.188-80.902-49.988-128.47-49.848zm0 332.17c-35.148 0-69.066-12.938-95.285-36.352-26.219-23.41-42.902-55.652-46.867-90.578-3.9648-34.922 5.0664-70.086 25.367-98.777l199.43 199.43c-24.133 17.156-53.027 26.348-82.641 26.281zm116.21-59.672-199.66-199.66c37.051-26.605 84.562-33.953 127.92-19.781 43.352 14.176 77.352 48.172 91.523 91.527 14.176 43.355 6.8281 90.867-19.777 127.91z"/>
 </g>
</svg>
